<svg width="53" height="31" viewBox="0 0 53 31" fill="none" xmlns="http://www.w3.org/2000/svg">
<path d="M15 8.18182V13.8636H0.625V8.18182H15ZM3.40909 2.95455H11.25V22.983C11.25 23.286 11.3021 23.5417 11.4062 23.75C11.5104 23.9489 11.6714 24.1004 11.8892 24.2045C12.107 24.2992 12.3864 24.3466 12.7273 24.3466C12.964 24.3466 13.2386 24.3182 13.5511 24.2614C13.8731 24.2045 14.1098 24.1572 14.2614 24.1193L15.3977 29.6307C15.0473 29.7348 14.5455 29.8627 13.892 30.0142C13.2481 30.1657 12.4811 30.2652 11.5909 30.3125C9.79167 30.4072 8.28125 30.2225 7.05966 29.7585C5.83807 29.285 4.91951 28.5417 4.30398 27.5284C3.68845 26.5152 3.39015 25.2462 3.40909 23.7216V2.95455Z" fill="#4EA8DE"/>
<path d="M26.0973 30.2841C24.5443 30.2841 23.1143 29.8769 21.8075 29.0625C20.5102 28.2481 19.4685 27.0123 18.6825 25.3551C17.906 23.6979 17.5178 21.6098 17.5178 19.0909C17.5178 16.4583 17.925 14.3182 18.7393 12.6705C19.5632 11.0227 20.6238 9.81534 21.9212 9.0483C23.228 8.28125 24.6011 7.89773 26.0405 7.89773C27.12 7.89773 28.067 8.08712 28.8814 8.46591C29.6958 8.83523 30.3776 9.33239 30.9268 9.95739C31.4761 10.5729 31.8928 11.25 32.1768 11.9886H32.2905V0.90909H40.1314V30H32.3473V26.4205H32.1768C31.8738 27.1591 31.4382 27.822 30.87 28.4091C30.3113 28.9867 29.6295 29.446 28.8246 29.7869C28.0291 30.1184 27.12 30.2841 26.0973 30.2841ZM28.995 24.2614C29.7147 24.2614 30.3303 24.053 30.8416 23.6364C31.3625 23.2102 31.7602 22.6136 32.0348 21.8466C32.3189 21.0701 32.4609 20.1515 32.4609 19.0909C32.4609 18.0114 32.3189 17.0881 32.0348 16.321C31.7602 15.5445 31.3625 14.9527 30.8416 14.5455C30.3303 14.1288 29.7147 13.9205 28.995 13.9205C28.2753 13.9205 27.6598 14.1288 27.1484 14.5455C26.6465 14.9527 26.2583 15.5445 25.9837 16.321C25.7185 17.0881 25.5859 18.0114 25.5859 19.0909C25.5859 20.1705 25.7185 21.0985 25.9837 21.875C26.2583 22.642 26.6465 23.2339 27.1484 23.6506C27.6598 24.0578 28.2753 24.2614 28.995 24.2614ZM48.2422 30.4545C47.1437 30.4545 46.2015 30.071 45.4155 29.304C44.639 28.5275 44.2554 27.5852 44.2649 26.4773C44.2554 25.3977 44.639 24.4744 45.4155 23.7074C46.2015 22.9403 47.1437 22.5568 48.2422 22.5568C49.2839 22.5568 50.2024 22.9403 50.9979 23.7074C51.8028 24.4744 52.21 25.3977 52.2195 26.4773C52.21 27.2159 52.0159 27.8883 51.6371 28.4943C51.2678 29.0909 50.7848 29.5691 50.1882 29.929C49.5916 30.2794 48.9429 30.4545 48.2422 30.4545Z" fill="#5E60CE"/>
</svg>
